<?xml version="1.0" encoding="UTF-8"?>
<svg version="1.1" xmlns="http://www.w3.org/2000/svg" width="512" height="512">
<path d="M0 0 C0.99606262 0.00182281 1.99212524 0.00364563 3.01837158 0.00552368 C17.53080287 0.05026745 31.66059519 0.50780957 45.9375 3.3125 C46.83307617 3.47347168 47.72865234 3.63444336 48.65136719 3.80029297 C97.34095832 12.60909804 142.36629928 36.0523521 177.9375 70.3125 C178.9265332 71.26068604 178.9265332 71.26068604 179.93554688 72.22802734 C189.42380305 81.37247479 198.1637044 90.66984009 205.9375 101.3125 C206.79556152 102.46355017 207.65363451 103.61459177 208.51171875 104.765625 C214.55041574 112.95680857 219.9213509 121.46247349 224.9375 130.3125 C225.33437012 131.00375977 225.73124023 131.69501953 226.14013672 132.40722656 C241.01561447 158.54699904 250.35939032 187.64331405 254.9375 217.3125 C255.11555176 218.43930176 255.29360352 219.56610352 255.47705078 220.72705078 C257.13237286 232.33501537 257.33622421 243.84969139 257.3125 255.5625 C257.31168427 257.08052216 257.31168427 257.08052216 257.31085205 258.62921143 C257.27011956 275.15780572 256.36674222 291.09163999 252.9375 307.3125 C252.71787598 308.35438477 252.49825195 309.39626953 252.27197266 310.46972656 C242.17435215 356.76299311 219.81521242 399.17663721 186.9375 433.3125 C186.30537598 433.97185547 185.67325195 434.63121094 185.02197266 435.31054688 C175.87752521 444.79880305 166.58015991 453.5387044 155.9375 461.3125 C154.78644983 462.17056152 153.63540823 463.02863451 152.484375 463.88671875 C144.29319386 469.92486829 135.77945895 475.28345521 126.9375 480.3125 C126.30569824 480.67698242 125.67389648 481.04146484 125.02294922 481.41699219 C98.93589649 496.34835402 69.60249753 505.82170268 39.9375 510.3125 C38.81867432 510.48982666 37.69984863 510.66715332 36.54711914 510.84985352 C24.82514053 512.53126341 13.20251024 512.66984341 1.375 512.625 C-0.15560562 512.62176727 -0.15560562 512.62176727 -1.71713257 512.61846924 C-16.34460524 512.56883352 -30.69513838 512.32169712 -45.0625 509.3125 C-46.52478027 509.01448486 -46.52478027 509.01448486 -48.01660156 508.71044922 C-91.28631524 499.65920074 -131.48769334 481.27479329 -165.0625 452.3125 C-165.80757813 451.67828125 -166.55265625 451.0440625 -167.3203125 450.390625 C-180.82529833 438.57948485 -193.49668743 425.82889772 -204.0625 411.3125 C-204.91899066 410.16255169 -205.77576433 409.01281411 -206.6328125 407.86328125 C-212.6734414 399.67160474 -218.03255071 391.15604922 -223.0625 382.3125 C-223.42698242 381.68069824 -223.79146484 381.04889648 -224.16699219 380.39794922 C-239.09723018 354.31285999 -248.57635054 324.97664886 -253.0625 295.3125 C-253.32740234 293.62882324 -253.32740234 293.62882324 -253.59765625 291.91113281 C-255.2545586 280.29802257 -255.46123513 268.78070055 -255.4375 257.0625 C-255.43695618 256.05048523 -255.43641235 255.03847046 -255.43585205 253.99578857 C-255.39511956 237.46719428 -254.49174222 221.53336001 -251.0625 205.3125 C-250.84287598 204.27061523 -250.62325195 203.22873047 -250.39697266 202.15527344 C-240.29935215 155.86200689 -217.94021242 113.44836279 -185.0625 79.3125 C-184.43037598 78.65314453 -183.79825195 77.99378906 -183.14697266 77.31445312 C-174.00252521 67.82619695 -164.70515991 59.0862956 -154.0625 51.3125 C-152.91144983 50.45443848 -151.76040823 49.59636549 -150.609375 48.73828125 C-142.41974019 42.70072604 -133.91711724 37.31792698 -125.0625 32.3125 C-124.35528809 31.9103125 -123.64807617 31.508125 -122.91943359 31.09375 C-96.71609344 16.34104475 -67.77645458 6.80758892 -38.0625 2.3125 C-36.93787354 2.13517334 -35.81324707 1.95784668 -34.65454102 1.77514648 C-23.10059556 0.12374292 -11.65784453 -0.04420897 0 0 Z " fill="#753DC5" transform="translate(255.0625,-0.31250000000000006)"/>
<path d="M0 0 C0.99606262 0.00182281 1.99212524 0.00364563 3.01837158 0.00552368 C17.53080287 0.05026745 31.66059519 0.50780957 45.9375 3.3125 C46.83307617 3.47347168 47.72865234 3.63444336 48.65136719 3.80029297 C97.34095832 12.60909804 142.36629928 36.0523521 177.9375 70.3125 C178.9265332 71.26068604 178.9265332 71.26068604 179.93554688 72.22802734 C189.42380305 81.37247479 198.1637044 90.66984009 205.9375 101.3125 C206.79556152 102.46355017 207.65363451 103.61459177 208.51171875 104.765625 C239.3004399 146.52895031 239.3004399 146.52895031 238.8671875 161.7890625 C237.56211002 165.33141567 235.37632262 166.57396563 232.375 168.8125 C229.27381079 171.35971485 227.12972228 173.30141083 226.3515625 177.39453125 C226.45207011 179.58189434 226.59801042 181.76755986 226.78515625 183.94921875 C227.26519764 194.54705549 221.74854859 203.6382456 214.9375 211.3125 C212.62180456 213.56789087 210.23626702 215.69029213 207.78125 217.79296875 C203.70499538 221.40448555 199.91792339 225.28525586 196.11083984 229.17700195 C193.17168321 232.1592685 190.18103685 235.00878536 187.0078125 237.7421875 C182.77270856 241.39889783 178.85377797 245.31973223 174.9375 249.3125 C171.03525721 253.29095847 167.13398138 257.19735093 162.90625 260.83203125 C158.15996384 264.91666473 153.87165881 269.41466712 149.58203125 273.97070312 C144.71661158 278.97382335 139.94848406 282.59662883 132.9609375 283.84375 C127.11397479 283.77475929 123.45309621 283.39803943 118.9375 279.3125 C114.60775552 274.79399282 112.79313916 271.42828496 112.875 265.125 C112.88402344 264.22394531 112.89304687 263.32289063 112.90234375 262.39453125 C112.91974609 261.36392578 112.91974609 261.36392578 112.9375 260.3125 C112.1125 260.6425 111.2875 260.9725 110.4375 261.3125 C104.88067148 262.90016529 100.69122733 262.84753546 95.25 261.1875 C90.59478021 258.55246993 88.18344032 255.62638916 85.625 250.875 C84.40234521 246.31783214 84.4984907 241.80940406 85.9375 237.3125 C85.15375 237.8075 84.37 238.3025 83.5625 238.8125 C78.86948272 240.75443819 74.95185216 241.04052177 69.9375 240.3125 C64.7087042 237.74743036 60.5598523 233.5572046 57.9375 228.3125 C57.84138248 226.68981009 57.80767648 225.06302694 57.8125 223.4375 C57.80992187 222.57382813 57.80734375 221.71015625 57.8046875 220.8203125 C57.92726079 218.50584029 58.28783555 216.52960884 58.9375 214.3125 C58.23496094 214.79847656 57.53242188 215.28445312 56.80859375 215.78515625 C52.02299041 218.33096701 47.2255876 217.95826375 41.9375 217.3125 C37.45879344 215.15312362 34.75551812 212.38297061 31.9375 208.3125 C30.39756928 203.69270784 30.41217424 199.13720238 30.9375 194.3125 C32.875 190.875 32.875 190.875 34.9375 188.3125 C35.81190634 186.38053083 35.81190634 186.38053083 35.9375 184.3125 C33.94518412 181.84087081 31.98155201 179.72618162 29.71704102 177.52441406 C29.04419067 176.85083359 28.37134033 176.17725311 27.67810059 175.48326111 C25.44418011 173.25283274 23.19305185 171.0406467 20.94140625 168.828125 C19.39189482 167.28793581 17.84348138 165.74664125 16.29612732 164.20428467 C12.21513897 160.14241201 8.11935955 156.09577443 4.02038574 152.05206299 C-0.15750447 147.92526578 -4.32132394 143.78432627 -8.48632812 139.64453125 C-16.66462724 131.51990062 -24.85861177 123.41128534 -33.0625 115.3125 C-33.84044922 115.78034912 -34.61839844 116.24819824 -35.41992188 116.73022461 C-50.32551398 125.6551269 -50.32551398 125.6551269 -59.0625 125.3125 C-56.9769212 128.09327173 -55.04329196 130.32777912 -52.3125 132.5 C-51.57 133.098125 -50.8275 133.69625 -50.0625 134.3125 C-50.0625 134.9725 -50.0625 135.6325 -50.0625 136.3125 C-49.4025 136.3125 -48.7425 136.3125 -48.0625 136.3125 C-48.0625 136.9725 -48.0625 137.6325 -48.0625 138.3125 C-47.4025 138.3125 -46.7425 138.3125 -46.0625 138.3125 C-46.0625 138.9725 -46.0625 139.6325 -46.0625 140.3125 C-45.4025 140.3125 -44.7425 140.3125 -44.0625 140.3125 C-42.72354368 141.97465268 -41.39119858 143.64213607 -40.0625 145.3125 C-38.41610035 146.67077971 -36.74954193 148.00504251 -35.0625 149.3125 C-32.75 151.4375 -32.75 151.4375 -31.0625 153.3125 C-31.0625 153.9725 -31.0625 154.6325 -31.0625 155.3125 C-30.44375 155.56 -29.825 155.8075 -29.1875 156.0625 C-26.65891373 157.54990369 -26.34410996 158.74928009 -25.0625 161.3125 C-24.49015625 161.580625 -23.9178125 161.84875 -23.328125 162.125 C-20.28443385 163.72031398 -18.23061665 165.88024232 -15.8125 168.3125 C-14.47445312 169.6428125 -14.47445312 169.6428125 -13.109375 171 C-11.0625 173.3125 -11.0625 173.3125 -11.0625 175.3125 C-10.49015625 175.55226562 -9.9178125 175.79203125 -9.328125 176.0390625 C-4.70326253 178.63855416 -1.64233714 182.74910883 0.9375 187.3125 C2.13017801 192.97772057 1.74725501 197.56841228 -0.6875 202.8125 C-4.07219941 206.37534148 -7.3927218 208.75590727 -12.0625 210.3125 C-14.39547433 210.35342937 -16.72955225 210.35491723 -19.0625 210.3125 C-19.7225 210.3125 -20.3825 210.3125 -21.0625 210.3125 C-20.59199219 210.74820313 -20.12148437 211.18390625 -19.63671875 211.6328125 C-14.31944115 216.71890412 -10.97167627 220.70794308 -10.6875 228.3125 C-10.83769577 232.66164717 -11.54336549 235.6640983 -14.0625 239.3125 C-19.47438862 244.19639948 -22.93487149 244.68486837 -30.1015625 244.57421875 C-38.19701583 243.85865757 -43.71740479 235.84773694 -49.0625 230.3125 C-48.90652344 230.88484375 -48.75054687 231.4571875 -48.58984375 232.046875 C-47.49887579 236.7339966 -47.00689507 241.13342982 -49.15625 245.5703125 C-52.39624179 250.2407262 -55.46665457 252.7688185 -61.0625 254.3125 C-67.33199837 255.22258847 -70.58712872 254.0068795 -75.67578125 250.3125 C-80.09750068 246.60722938 -84.09985769 242.49850629 -88.0625 238.3125 C-87.959375 239.4675 -87.85625 240.6225 -87.75 241.8125 C-87.75 246.98947994 -89.84927427 250.37455217 -93.0625 254.3125 C-97.22297012 258.08594964 -99.73790015 259.4803041 -105.3125 259.625 C-106.24578125 259.66238281 -107.1790625 259.69976562 -108.140625 259.73828125 C-115.41726392 258.67791542 -120.61989835 252.05141395 -125.57470703 247.09082031 C-126.40796509 246.26427948 -127.24122314 245.43773865 -128.09973145 244.58615112 C-130.84524271 241.85959599 -133.58318788 239.12559754 -136.3203125 236.390625 C-137.26792523 235.44586124 -138.21570937 234.50126937 -139.16366196 233.55684662 C-144.127025 228.61195479 -149.08522703 223.66195558 -154.03857422 218.70703125 C-158.6430852 214.10131881 -163.25863509 209.50687957 -167.87950623 204.91758657 C-171.85796129 200.96534602 -175.8286026 197.00536804 -179.79333389 193.03936076 C-182.15634793 190.67583872 -184.52315628 188.31648519 -186.89612198 185.96292877 C-189.54339365 183.33529313 -192.17764366 180.69523682 -194.80908203 178.05175781 C-195.58943817 177.28264069 -196.36979431 176.51352356 -197.17379761 175.72109985 C-204.1496671 168.66400221 -209.0160036 160.76885708 -209.08984375 150.515625 C-209.06019531 149.21109375 -209.03054687 147.9065625 -209 146.5625 C-209.07914462 140.85344634 -210.07450993 137.43620399 -214.06274414 133.26855469 C-216.31968424 131.16503995 -218.62624922 129.20691577 -221.0625 127.3125 C-213.69311206 113.98903704 -204.95201831 101.88571767 -195.0625 90.3125 C-194.42570312 89.56355469 -193.78890625 88.81460938 -193.1328125 88.04296875 C-181.31547532 74.54729379 -168.57698412 61.87691975 -154.0625 51.3125 C-152.91255169 50.45600934 -151.76281411 49.59923567 -150.61328125 48.7421875 C-142.42315742 42.70215791 -133.91870382 37.31882386 -125.0625 32.3125 C-124.35528809 31.9103125 -123.64807617 31.508125 -122.91943359 31.09375 C-96.71609344 16.34104475 -67.77645458 6.80758892 -38.0625 2.3125 C-36.93787354 2.13517334 -35.81324707 1.95784668 -34.65454102 1.77514648 C-23.10059556 0.12374292 -11.65784453 -0.04420897 0 0 Z " fill="#753DC5" transform="translate(255.0625,-0.31250000000000006)"/>
<path d="M0 0 C4.75909074 3.98083681 9.28285523 8.12261038 13.68554688 12.49267578 C14.31240387 13.11135529 14.93926086 13.73003479 15.58511353 14.36746216 C17.63264323 16.39042339 19.67622832 18.41729549 21.71875 20.4453125 C22.77011894 21.48869593 22.77011894 21.48869593 23.84272766 22.55315781 C27.54060679 26.22445056 31.23490189 29.89931113 34.92675781 33.57666016 C37.98302036 36.61950585 41.04641783 39.65488821 44.11621094 42.68408203 C47.8311216 46.34987926 51.53379856 50.02760929 55.22779846 53.71447372 C56.63664989 55.11659183 58.04976874 56.51443523 59.46714783 57.90793228 C61.43980433 59.84918765 63.39633117 61.80538826 65.34960938 63.76611328 C65.9406546 64.34075317 66.53169983 64.91539307 67.14065552 65.50744629 C68.7376709 67.12966919 68.7376709 67.12966919 71 70 C70.65374202 73.04389766 69.91207791 74.10923654 67.9375 76.5625 C65.20860681 81.4040847 65.33499528 85.55831504 66 91 C67.85800256 96.37842846 70.92163513 99.46081756 76 102 C83.49056481 102.69336032 88.84974015 102.47291625 95 98 C94.67 98.78375 94.34 99.5675 94 100.375 C92.34480831 106.37506986 91.85901661 111.71803323 94.6875 117.375 C97.82196628 120.9330428 101.18576846 124.68091427 106.1015625 125.23828125 C112.57133504 125.42856868 116.43256788 124.29921903 122 121 C121.67 121.845625 121.34 122.69125 121 123.5625 C119.14521615 129.93831947 119.64730393 134.46756653 122.79296875 140.203125 C124.8944999 143.33161798 127.34300966 145.31434883 130.8125 146.75 C137.10686814 147.46935636 142.04500669 146.98499777 148 145 C147.96519531 145.72445312 147.93039062 146.44890625 147.89453125 147.1953125 C147.65597493 155.04186593 147.65597493 155.04186593 151 162 C155.16676463 166.07787365 158.27387027 168.15766509 164.125 168.3125 C165.03507813 168.34988281 165.94515625 168.38726562 166.8828125 168.42578125 C176.48892494 167.11366815 182.10054516 160.35780695 188.5 153.6875 C193.879282 148.15000382 199.21449738 142.69736732 205.08789062 137.68286133 C208.55985803 134.62715763 211.76279544 131.30043121 215 128 C219.52587654 123.38572744 224.12096414 118.97359344 229.01806641 114.75488281 C232.38542335 111.77329108 235.5295426 108.57523695 238.6875 105.375 C239.32494141 104.73304688 239.96238281 104.09109375 240.61914062 103.4296875 C241.85516165 102.18473753 243.08960884 100.93822248 244.32226562 99.68994141 C245.78902684 98.21250818 247.27391353 96.75311434 248.76171875 95.296875 C254.97351839 88.92246281 258.72002034 81.84349586 260 73 C259.95266494 70.74895495 259.86860912 68.4984164 259.75 66.25 C259.59740934 60.65722065 259.59740934 60.65722065 261.37109375 57.76171875 C263.15231589 55.97283544 264.95499826 54.47647429 267 53 C267.928125 52.236875 268.85625 51.47375 269.8125 50.6875 C270.534375 50.130625 271.25625 49.57375 272 49 C272.66 48.34 273.32 47.68 274 47 C278.51714386 59.78356143 282.99166904 72.54730148 285.875 85.8125 C286.05313232 86.61888916 286.23126465 87.42527832 286.41479492 88.25610352 C287.01021655 91.16263063 287.51643993 94.07252359 288 97 C288.12388092 97.74995239 288.24776184 98.49990479 288.37539673 99.27258301 C290.65677628 113.4359838 291.53115219 127.28959031 291.4375 141.625 C291.43293793 143.12054413 291.43293793 143.12054413 291.42828369 144.64630127 C291.35465726 161.04797909 290.40240265 176.90609539 287 193 C286.78037598 194.04188477 286.56075195 195.08376953 286.33447266 196.15722656 C276.23685215 242.45049311 253.87771242 284.86413721 221 319 C220.36787598 319.65935547 219.73575195 320.31871094 219.08447266 320.99804688 C209.94002521 330.48630305 200.64265991 339.2262044 190 347 C188.84894983 347.85806152 187.69790823 348.71613451 186.546875 349.57421875 C178.35569386 355.61236829 169.84195895 360.97095521 161 366 C160.36819824 366.36448242 159.73639648 366.72896484 159.08544922 367.10449219 C142.18903734 376.7754367 116.87233353 391 97 391 C96.801004 386.7135497 96.65652416 382.42959749 96.56054688 378.13989258 C96.52051372 376.68368673 96.46606367 375.22779849 96.39648438 373.77270508 C95.83008357 361.61591132 95.83008357 361.61591132 98.69775391 357.6550293 C100.8203125 355.8828125 100.8203125 355.8828125 103.02246094 354.37768555 C105.85483372 352.40446584 106.96280471 350.03535036 108.375 346.9375 C108.83648437 345.95652344 109.29796875 344.97554688 109.7734375 343.96484375 C112.22039183 338.05007197 113.30079854 333.04953247 113.30639648 326.64306641 C113.31888176 325.41744743 113.31888176 325.41744743 113.33161926 324.16706848 C113.35562263 321.47851736 113.36447901 318.79020925 113.37109375 316.1015625 C113.38006664 314.22358124 113.38918861 312.34560069 113.39845276 310.46762085 C113.41491848 306.53536241 113.4226386 302.60318888 113.42553711 298.67089844 C113.43092181 293.64493873 113.46861589 288.61978236 113.51428127 283.59404945 C113.54409617 279.71628946 113.55126161 275.83872203 113.55226326 271.96085739 C113.55645588 270.10856823 113.56885155 268.25627799 113.58978081 266.40410233 C113.61679115 263.80738244 113.61184222 261.21251365 113.59936523 258.61572266 C113.62161667 257.48078621 113.62161667 257.48078621 113.64431763 256.32292175 C113.56463548 250.46708531 111.59809311 246.5787312 108 242 C104.33759203 238.51199241 101.48574055 237.71551805 96.5625 237.5 C89.7854943 237.74895123 85.68929175 240.12927732 81 245 C80.90203125 244.41992188 80.8040625 243.83984375 80.703125 243.2421875 C79.52980686 237.1126117 78.0282897 232.18391289 72.73046875 228.36328125 C67.99476 225.99881436 63.1673231 226.35238035 58 227 C55.25696044 228.05960224 53.40050303 229.25417961 51 231 C50.77014482 219.94034756 51.66804668 209.28400472 52.93359375 198.29882812 C53.63694781 191.84471726 54.16612784 185.42235333 54.34375 178.93359375 C54.37662109 177.74693115 54.40949219 176.56026855 54.44335938 175.33764648 C53.9047412 171.28288376 52.52978389 169.17464775 50 166 C44.84454508 162.22771591 39.15048687 162.19337877 33 163 C27.78791521 165.36912945 25.30017781 168.88012305 23 174 C22.18329192 177.63500136 22.18329192 177.63500136 21.91918945 181.49243164 C21.85193665 182.20558029 21.78468384 182.91872894 21.71539307 183.65348816 C21.49906086 185.98792864 21.30611928 188.32366824 21.11328125 190.66015625 C20.96596811 192.29501341 20.81711375 193.92973236 20.66679382 195.5643158 C20.27622539 199.85318743 19.90518422 204.14352147 19.53869629 208.43450928 C19.09031664 213.64386774 18.61982217 218.8512654 18.15172863 224.05888271 C17.78777667 228.11119309 17.42734887 232.16370625 17.07795715 236.21730042 C17.01279404 236.9643927 16.94763092 237.71148499 16.88049316 238.48121643 C16.70519336 240.49276458 16.5320557 242.50450083 16.35908508 244.51625061 C16.02984533 247.71044838 15.56813906 250.84052725 15 254 C14.34 253.67 13.68 253.34 13 253 C12.46923828 250.97583008 12.46923828 250.97583008 12.0703125 248.26953125 C11.91675293 247.25366943 11.76319336 246.23780762 11.60498047 245.19116211 C11.44658691 244.07620361 11.28819336 242.96124512 11.125 241.8125 C10.87000732 240.08495483 10.87000732 240.08495483 10.60986328 238.32250977 C5.76392559 205.12405414 5.76392559 205.12405414 4.4453125 191.53515625 C4.36684082 190.75148682 4.28836914 189.96781738 4.20751953 189.16040039 C4.01841563 187.19171751 3.85174273 185.22091271 3.6875 183.25 C2.61521721 178.18102683 0.14594388 175.01269459 -3.6875 171.625 C-9.26807148 168.88736116 -13.84846532 169.42625742 -19.75 171 C-24.07458258 173.66128158 -26.2446216 176.22595834 -28 181 C-28.66975051 185.33601443 -28.9264867 189.61593432 -29 194 C-35.04265914 188.99744121 -40.56098043 183.56822676 -46.08984375 178.0078125 C-47.04368954 177.05209752 -47.99775941 176.09660612 -48.95204163 175.1413269 C-51.44153194 172.64805084 -53.92800224 170.15178475 -56.41381836 167.65484619 C-58.95957994 165.09878491 -61.50823777 162.54561495 -64.05664062 159.9921875 C-69.04057069 154.99758981 -74.02131048 149.99982201 -79 145 C-76.40227705 143.70113852 -74.64236147 144.0413014 -71.75 144.1875 C-66.594481 144.20769133 -63.856104 143.67248 -60 140 C-55.82406577 135.07994983 -54.44335842 131.12948042 -54.82421875 124.6875 C-54.88222656 124.130625 -54.94023437 123.57375 -55 123 C-50.2916488 127.00710741 -45.67142082 131.08800507 -41.11328125 135.265625 C-37.24216825 138.44265674 -34.25183017 139.46460687 -29.15625 139.3125 C-23.86106821 138.54508235 -20.10077912 136.18333756 -16.5 132.3125 C-13.94463688 126.66940643 -14.46775839 120.93743625 -16 115 C-11.52832602 118.81955486 -7.09232515 122.67225287 -2.69921875 126.58203125 C1.18015855 129.81930472 5.13923773 129.32986151 10.01171875 129.27734375 C14.03947586 128.90352577 16.11024545 127.81565828 19 125 C22.52935205 120.05890712 22.96566748 114.87599551 22 109 C19.58733675 103.25703663 15.15074201 98.56438984 11 94 C11.88945312 94.23783203 11.88945312 94.23783203 12.796875 94.48046875 C18.59547528 95.84786917 23.0935016 95.11725153 28.19921875 92.2421875 C32.08071845 89.56471048 33.63527361 86.91205046 34.515625 82.296875 C34.99007778 76.1289888 34.17827707 72.45135607 30.3125 67.5625 C27.33600716 64.24968029 24.15844594 61.1390392 21 58 C11 48 11 48 8.42578125 45.38671875 C5.85461678 42.8569579 3.15747038 40.59633534 0.35546875 38.33203125 C-0.09183594 37.89246094 -0.53914063 37.45289063 -1 37 C-1 36.34 -1 35.68 -1 35 C-2.485 34.505 -2.485 34.505 -4 34 C-4 33.34 -4 32.68 -4 32 C-5.485 31.505 -5.485 31.505 -7 31 C-7 30.34 -7 29.68 -7 29 C-8.485 28.505 -8.485 28.505 -10 28 C-10 27.34 -10 26.68 -10 26 C-10.66 26 -11.32 26 -12 26 C-12 25.34 -12 24.68 -12 24 C-12.66 24 -13.32 24 -14 24 C-14 23.34 -14 22.68 -14 22 C-14.66 22 -15.32 22 -16 22 C-17.71108689 20.37897032 -19.37253306 18.70496537 -21 17 C-21.763125 16.278125 -22.52625 15.55625 -23.3125 14.8125 C-25 13 -25 13 -25 11 C-24.18208984 10.85304688 -24.18208984 10.85304688 -23.34765625 10.703125 C-14.36289193 8.92153071 -7.25521138 5.55718318 0 0 Z " fill="#4C2A9B" transform="translate(221,114)"/>
<path d="M0 0 C6.78376359 5.55035203 12.85522968 11.76442027 19 18 C19.76183594 17.52949219 20.52367188 17.05898437 21.30859375 16.57421875 C31.39016811 10.49506717 40.48168312 5.7409058 52.46875 8.5859375 C64.24000697 12.64627614 73.15338207 22.86066677 81.69921875 31.50390625 C82.66954446 32.47797601 83.64032298 33.45159489 84.61152649 34.42478943 C87.12952955 36.95031957 89.64146062 39.48180096 92.15203857 42.01470947 C94.72977528 44.61314431 97.31339804 47.20571319 99.89648438 49.79882812 C104.93666173 54.86026177 109.9704276 59.92802614 115 65 C112.27893793 70.72474653 107.78845197 73.4250451 102 75.8125 C98.20650461 77.13133238 94.99064521 77.24941533 91 77 C93.0855788 79.78077173 95.01920804 82.01527912 97.75 84.1875 C98.4925 84.785625 99.235 85.38375 100 86 C100 86.66 100 87.32 100 88 C100.66 88 101.32 88 102 88 C102 88.66 102 89.32 102 90 C102.66 90 103.32 90 104 90 C104 90.66 104 91.32 104 92 C104.66 92 105.32 92 106 92 C107.33895632 93.66215268 108.67130142 95.32963607 110 97 C111.64639965 98.35827971 113.31295807 99.69254251 115 101 C117.3125 103.125 117.3125 103.125 119 105 C119 105.66 119 106.32 119 107 C119.61875 107.2475 120.2375 107.495 120.875 107.75 C123.40358627 109.23740369 123.71839004 110.43678009 125 113 C125.57234375 113.268125 126.1446875 113.53625 126.734375 113.8125 C129.77806615 115.40781398 131.83188335 117.56774232 134.25 120 C135.58804688 121.3303125 135.58804688 121.3303125 136.953125 122.6875 C139 125 139 125 139 127 C139.57234375 127.23976563 140.1446875 127.47953125 140.734375 127.7265625 C145.35923747 130.32605416 148.42016286 134.43660883 151 139 C152.19267801 144.66522057 151.80975501 149.25591228 149.375 154.5 C145.99030059 158.06284148 142.6697782 160.44340727 138 162 C135.66702567 162.04092937 133.33294775 162.04241723 131 162 C130.34 162 129.68 162 129 162 C129.47050781 162.43570313 129.94101563 162.87140625 130.42578125 163.3203125 C135.74305885 168.40640412 139.09082373 172.39544308 139.375 180 C139.22480423 184.34914717 138.51913451 187.3515983 136 191 C130.58811138 195.88389948 127.12762851 196.37236837 119.9609375 196.26171875 C111.86548417 195.54615757 106.34509521 187.53523694 101 182 C101.15597656 182.57234375 101.31195313 183.1446875 101.47265625 183.734375 C102.56362421 188.4214966 103.05560493 192.82092982 100.90625 197.2578125 C97.66625821 201.9282262 94.59584543 204.4563185 89 206 C82.73050163 206.91008847 79.47537128 205.6943795 74.38671875 202 C69.96499932 198.29472938 65.96264231 194.18600629 62 190 C62.103125 191.155 62.20625 192.31 62.3125 193.5 C62.3125 198.67697994 60.21322573 202.06205217 57 206 C52.83952988 209.77344964 50.32459985 211.1678041 44.75 211.3125 C43.81671875 211.34988281 42.8834375 211.38726562 41.921875 211.42578125 C34.64523608 210.36541542 29.44260165 203.73891395 24.48779297 198.77832031 C23.65453491 197.95177948 22.82127686 197.12523865 21.96276855 196.27365112 C19.21725729 193.54709599 16.47931212 190.81309754 13.7421875 188.078125 C12.79457477 187.13336124 11.84679063 186.18876937 10.89883804 185.24434662 C5.935475 180.29945479 0.97727297 175.34945558 -3.97607422 170.39453125 C-8.5805852 165.78881881 -13.19613509 161.19437957 -17.81700623 156.60508657 C-21.79546129 152.65284602 -25.7661026 148.69286804 -29.73083389 144.72686076 C-32.09384793 142.36333872 -34.46065628 140.00398519 -36.83362198 137.65042877 C-39.48089365 135.02279313 -42.11514366 132.38273682 -44.74658203 129.73925781 C-45.52693817 128.97014069 -46.30729431 128.20102356 -47.11129761 127.40859985 C-54.0871671 120.35150221 -58.9535036 112.45635708 -59.02734375 102.203125 C-58.99769531 100.89859375 -58.96804687 99.5940625 -58.9375 98.25 C-59.01664462 92.54094634 -60.01200993 89.12370399 -64.00024414 84.95605469 C-66.25718424 82.85253995 -68.56374922 80.89441577 -71 79 C-63.63061206 65.67653704 -54.88951831 53.57321767 -45 42 C-44.36320312 41.25105469 -43.72640625 40.50210938 -43.0703125 39.73046875 C-31.24609665 26.2269382 -18.48764318 13.61490754 -4 3 C-2.66614205 2.00069987 -1.33256044 1.0010297 0 0 Z " fill="#EEC396" transform="translate(105,48)"/>
<path d="M0 0 C4.97673755 2.21371666 8.27065045 5.92985617 12.0625 9.75 C12.82183838 10.51352783 13.58117676 11.27705566 14.36352539 12.0637207 C20.82516656 18.65427926 26.56232729 25.55559262 32 33 C32.85806152 34.15105017 33.71613451 35.30209177 34.57421875 36.453125 C65.3629399 78.21645031 65.3629399 78.21645031 64.9296875 93.4765625 C63.62461002 97.01891567 61.43882262 98.26146563 58.4375 100.5 C55.33631079 103.04721485 53.19222228 104.98891083 52.4140625 109.08203125 C52.51457011 111.26939434 52.66051042 113.45505986 52.84765625 115.63671875 C53.32769764 126.23455549 47.81104859 135.3257456 41 143 C38.68430456 145.25539087 36.29876702 147.37779213 33.84375 149.48046875 C29.76749538 153.09198555 25.98042339 156.97275586 22.17333984 160.86450195 C19.23418321 163.8467685 16.24353685 166.69628536 13.0703125 169.4296875 C8.83520856 173.08639783 4.91627797 177.00723223 1 181 C-2.90224279 184.97845847 -6.80351862 188.88485093 -11.03125 192.51953125 C-15.77753616 196.60416473 -20.06584119 201.10216712 -24.35546875 205.65820312 C-29.22088842 210.66132335 -33.98901594 214.28412883 -40.9765625 215.53125 C-46.82352521 215.46225929 -50.48440379 215.08553943 -55 211 C-59.32974448 206.48149282 -61.14436084 203.11578496 -61.0625 196.8125 C-61.05347656 195.91144531 -61.04445313 195.01039063 -61.03515625 194.08203125 C-61.02355469 193.39496094 -61.01195312 192.70789063 -61 192 C-61.825 192.33 -62.65 192.66 -63.5 193 C-69.05682852 194.58766529 -73.24627267 194.53503546 -78.6875 192.875 C-83.34271979 190.23996993 -85.75405968 187.31388916 -88.3125 182.5625 C-89.53515479 178.00533214 -89.4390093 173.49690406 -88 169 C-88.78375 169.495 -89.5675 169.99 -90.375 170.5 C-95.06801728 172.44193819 -98.98564784 172.72802177 -104 172 C-109.2287958 169.43493036 -113.3776477 165.2447046 -116 160 C-116.09611752 158.37731009 -116.12982352 156.75052694 -116.125 155.125 C-116.12886719 153.82949219 -116.12886719 153.82949219 -116.1328125 152.5078125 C-116.01023921 150.19334029 -115.64966445 148.21710884 -115 146 C-115.70253906 146.48597656 -116.40507812 146.97195312 -117.12890625 147.47265625 C-121.91450959 150.01846701 -126.7119124 149.64576375 -132 149 C-136.47870656 146.84062362 -139.18198188 144.07047061 -142 140 C-142.99407938 137.01776186 -143.23040978 134.81124878 -143.3125 131.6875 C-143.34988281 130.76324219 -143.38726562 129.83898437 -143.42578125 128.88671875 C-142.46744677 122.38938684 -137.25705859 117.96501679 -132.75 113.5625 C-132.16718262 112.98612793 -131.58436523 112.40975586 -130.98388672 111.81591797 C-128.10651058 108.9897094 -125.20227263 106.23458141 -122.125 103.625 C-119.3951768 101.26811286 -116.7880708 98.84311521 -114.25 96.28125 C-113.23462158 95.2610376 -113.23462158 95.2610376 -112.19873047 94.22021484 C-110.83047627 92.83778518 -109.4648544 91.45274456 -108.10205078 90.06494141 C-107.47282715 89.42733887 -106.84360352 88.78973633 -106.1953125 88.1328125 C-105.62828613 87.55418457 -105.06125977 86.97555664 -104.47705078 86.37939453 C-103 85 -103 85 -101 84 C-101.58729834 79.89634578 -102.99050093 77.06599367 -105.0625 73.5 C-108.41883687 66.91703977 -109.23783139 61.29265003 -108 54 C-104.70563517 44.42831313 -94.70427181 37.49172773 -86.0625 33.125 C-73.73078654 27.33445629 -62.06698873 25.82742106 -48.5625 25.875 C-46.9218457 25.86919922 -46.9218457 25.86919922 -45.24804688 25.86328125 C-44.17748047 25.86457031 -43.10691406 25.86585937 -42.00390625 25.8671875 C-40.96443848 25.86686523 -39.9249707 25.86654297 -38.85400391 25.86621094 C-36.30377206 25.98575987 -34.25552916 26.41755237 -31.80859375 27.0703125 C-27.25685744 26.98628045 -26.58770671 26.20539586 -23.34375 23.1875 C-21.7057616 21.48048778 -20.09177472 19.75018569 -18.5 18 C-16.88777689 16.28943905 -15.27322039 14.58107411 -13.65625 12.875 C-12.49416016 11.63556641 -12.49416016 11.63556641 -11.30859375 10.37109375 C-8.05274603 7.02710126 -4.56384656 4.00742665 -1 1 C-0.67 0.67 -0.34 0.34 0 0 Z " fill="#EEC397" transform="translate(429,68)"/>
<path d="M0 0 C4.30546028 2.2556868 6.53582058 5.14603523 8.859375 9.31640625 C9.30273438 12.65185547 9.30273438 12.65185547 9.203125 16.24609375 C9.16703125 17.56448242 9.1309375 18.88287109 9.09375 20.24121094 C8.76295945 26.66674074 8.09292381 33.05094045 7.359375 39.44140625 C6.29355356 48.78414731 5.64560115 57.90837742 5.859375 67.31640625 C6.601875 66.65640625 7.344375 65.99640625 8.109375 65.31640625 C12.88050591 62.13565231 18.37006787 62.59154589 23.859375 63.31640625 C29.40427341 65.73599828 32.31856703 69.96841528 34.859375 75.31640625 C35.671875 78.81640625 35.671875 78.81640625 35.859375 81.31640625 C36.973125 80.14078125 36.973125 80.14078125 38.109375 78.94140625 C42.96141383 74.30991464 46.59315889 73.8686789 53.16796875 74 C58.2071 74.59240875 60.83217597 77.17507399 64.109375 80.81640625 C67.55920873 85.74474014 68.16052608 89.36917732 68.16577148 95.36694336 C68.174095 96.17569916 68.18241852 96.98445496 68.19099426 97.81771851 C68.21509533 100.49311142 68.22387014 103.16825999 68.23046875 105.84375 C68.23944094 107.71261159 68.24856289 109.58147248 68.25782776 111.45033264 C68.27432476 115.37356304 68.28201812 119.2967081 68.28491211 123.2199707 C68.29027087 128.21635496 68.32784338 133.21192106 68.37365627 138.20807552 C68.40360408 142.07317422 68.41063962 145.93808105 68.41163826 149.8032856 C68.41581202 151.64306921 68.4281303 153.48285492 68.44915581 155.32252312 C68.59858746 169.5391522 67.29262836 182.50695385 56.859375 193.31640625 C56.01544189 193.86321045 55.17150879 194.41001465 54.30200195 194.97338867 C51.56517914 197.1514642 51.56517914 197.1514642 51.19995117 200.61621094 C51.18424072 201.89399414 51.16853027 203.17177734 51.15234375 204.48828125 C51.12966179 205.51190765 51.12966179 205.51190765 51.10652161 206.55621338 C51.06368106 208.7266147 51.05481161 210.89562448 51.046875 213.06640625 C51.02372737 214.54170357 50.99836145 216.01696786 50.97070312 217.4921875 C50.90789126 221.10023357 50.87552436 224.70781541 50.859375 228.31640625 C30.24634134 234.31453364 9.83368011 235.70993976 -11.515625 235.75390625 C-12.47328766 235.75989838 -13.43095032 235.7658905 -14.41763306 235.77206421 C-28.54724251 235.83089536 -42.19451229 234.5710419 -56.140625 232.31640625 C-56.11536743 230.59925415 -56.11536743 230.59925415 -56.08959961 228.84741211 C-56.03875167 224.57717752 -56.04738965 220.30873038 -56.07348633 216.03833008 C-56.07655797 214.19453666 -56.06375435 212.35064275 -56.03442383 210.50708008 C-55.46981576 200.05500244 -55.46981576 200.05500244 -59.05273438 190.65991211 C-61.33702154 188.90213333 -63.56691523 187.60033742 -66.140625 186.31640625 C-78.06665035 175.76921566 -89.48129698 160.07376844 -91.44189453 143.81860352 C-91.57552564 141.24830044 -91.59955434 138.70237518 -91.578125 136.12890625 C-91.59810547 135.26587891 -91.61808594 134.40285156 -91.63867188 133.51367188 C-91.63364516 126.9437543 -89.98835839 123.42857203 -85.5 118.5234375 C-80.67765544 114.34485253 -75.73654668 111.31640625 -69.140625 111.31640625 C-69.57368904 104.75360622 -70.01181072 98.19115659 -70.453125 91.62890625 C-70.51932037 90.64277344 -70.58551575 89.65664063 -70.65371704 88.640625 C-71.37435641 77.94772795 -72.12004569 67.25859688 -73.0078125 56.578125 C-73.07713486 55.74315994 -73.14645721 54.90819489 -73.21788025 54.04792786 C-73.54527913 50.13052595 -73.88070418 46.21397408 -74.22583008 42.2980957 C-76.29802327 18.38028925 -76.29802327 18.38028925 -71.50390625 11.87109375 C-68.07894945 7.96526908 -65.08591115 6.64306526 -59.9921875 6.078125 C-54.49206285 5.89478751 -51.46199054 6.59802195 -47.140625 10.31640625 C-43.15320996 14.84266116 -42.01085027 17.61997967 -41.30859375 23.5625 C-41.07342041 25.5118042 -41.07342041 25.5118042 -40.83349609 27.50048828 C-40.75121765 28.19386292 -40.66893921 28.88723755 -40.58416748 29.60162354 C-38.83771052 44.28226996 -36.79025183 58.90317089 -34.56347656 73.51904297 C-33.71792909 79.11273984 -32.93091025 84.71467847 -32.140625 90.31640625 C-30.7142315 80.25776675 -29.61724304 70.22395 -28.7734375 60.09765625 C-28.5899425 57.98483164 -28.40408411 55.87222227 -28.21821404 53.75960541 C-27.76685589 48.62868833 -27.32041084 43.49748099 -26.89599609 38.36425781 C-26.59695845 34.75350857 -26.28151392 31.14451327 -25.95534897 27.53611755 C-25.83533685 26.174794 -25.72128553 24.81293005 -25.61359024 23.45057678 C-24.91284277 14.62631385 -24.33596274 8.11218801 -17.515625 1.94140625 C-12.31802418 -1.61484694 -6.02809733 -1.92503108 0 0 Z " fill="#F2D5A3" transform="translate(267.140625,276.68359375)"/>
<path d="M0 0 C6.78376359 5.55035203 12.85522968 11.76442027 19 18 C19.76183594 17.52949219 20.52367187 17.05898437 21.30859375 16.57421875 C31.39016811 10.49506717 40.48168312 5.7409058 52.46875 8.5859375 C64.24000697 12.64627614 73.15338207 22.86066677 81.69921875 31.50390625 C82.66954446 32.47797601 83.64032298 33.45159489 84.61152649 34.42478943 C87.12952955 36.95031957 89.64146062 39.48180096 92.15203857 42.01470947 C94.72977528 44.61314431 97.31339804 47.20571319 99.89648438 49.79882812 C104.93666173 54.86026177 109.9704276 59.92802614 115 65 C112.27893793 70.72474653 107.78845197 73.4250451 102 75.8125 C98.20650461 77.13133238 94.99064521 77.24941533 91 77 C93.0855788 79.78077173 95.01920804 82.01527912 97.75 84.1875 C98.4925 84.785625 99.235 85.38375 100 86 C100 86.66 100 87.32 100 88 C100.66 88 101.32 88 102 88 C102 88.66 102 89.32 102 90 C102.66 90 103.32 90 104 90 C104 90.66 104 91.32 104 92 C104.66 92 105.32 92 106 92 C107.33895632 93.66215268 108.67130142 95.32963607 110 97 C111.64639965 98.35827971 113.31295807 99.69254251 115 101 C117.3125 103.125 117.3125 103.125 119 105 C119 105.66 119 106.32 119 107 C119.61875 107.2475 120.2375 107.495 120.875 107.75 C123.40358627 109.23740369 123.71839004 110.43678009 125 113 C125.57234375 113.268125 126.1446875 113.53625 126.734375 113.8125 C129.77806615 115.40781398 131.83188335 117.56774232 134.25 120 C135.58804688 121.3303125 135.58804688 121.3303125 136.953125 122.6875 C139 125 139 125 139 127 C139.57234375 127.23976563 140.1446875 127.47953125 140.734375 127.7265625 C145.35923747 130.32605416 148.42016286 134.43660883 151 139 C152.19267801 144.66522057 151.80975501 149.25591228 149.375 154.5 C145.13462765 158.96354984 140.99683771 161.58044272 134.875 162.4375 C124.45090707 161.26058628 116.76687783 151.16154415 109.74609375 144.0390625 C108.593765 142.88112695 107.44076352 141.72386051 106.28712463 140.56723022 C103.27695941 137.54570156 100.27591999 134.51526954 97.27679443 131.48278809 C94.20504351 128.38015147 91.12460496 125.28616596 88.04492188 122.19140625 C82.02149017 116.13596071 76.00768712 110.07106612 70 104 C66.37916872 105.69854037 64.05744646 107.71104782 61.234375 110.5703125 C60.34492188 111.46621094 59.45546875 112.36210937 58.5390625 113.28515625 C57.61867188 114.22230469 56.69828125 115.15945312 55.75 116.125 C54.80515144 117.07988637 53.85984367 118.03431859 52.9140625 118.98828125 C50.60481662 121.32109087 48.30036797 123.65844086 46 126 C40.70387177 121.56805713 35.74194891 116.90602937 30.84570312 112.03857422 C29.67133194 110.87646927 29.67133194 110.87646927 28.47323608 109.69088745 C25.9062193 107.14851267 23.34320646 104.60216105 20.78125 102.0546875 C19.90381638 101.18257755 19.02638275 100.31046761 18.12236023 99.41193008 C13.96629324 95.27975171 9.81254306 91.14526761 5.66197443 87.00756633 C0.87748808 82.23821171 -3.91689778 77.47909373 -8.71955442 72.72803867 C-12.8880127 68.6028488 -17.04281119 64.46411374 -21.19288635 60.32043839 C-22.95899559 58.56106667 -24.72937616 56.80597218 -26.50401306 55.05520248 C-28.9747516 52.61584624 -31.42950012 50.16144487 -33.88085938 47.70263672 C-34.99184494 46.61625916 -34.99184494 46.61625916 -36.12527466 45.50793457 C-36.7869162 44.83797455 -37.44855774 44.16801453 -38.13024902 43.47775269 C-38.7120266 42.89928526 -39.29380417 42.32081783 -39.89321136 41.72482109 C-41 40 -41 40 -40.79878998 37.92633247 C-39.6191565 35.08157184 -37.74908446 33.35951017 -35.58203125 31.18359375 C-34.66341309 30.25909424 -33.74479492 29.33459473 -32.79833984 28.38208008 C-31.80378273 27.39982096 -30.80848929 26.41830689 -29.8125 25.4375 C-29.06676727 24.69625381 -29.06676727 24.69625381 -28.30596924 23.94003296 C-20.64567182 16.33405621 -12.7778647 9.30829052 -4 3 C-2.6650823 2.00211598 -1.33103713 1.0030543 0 0 Z " fill="#F2D5A3" transform="translate(105,48)"/>
<path d="M0 0 C4.30546028 2.2556868 6.53582058 5.14603523 8.859375 9.31640625 C9.30273438 12.65185547 9.30273438 12.65185547 9.203125 16.24609375 C9.16703125 17.56448242 9.1309375 18.88287109 9.09375 20.24121094 C8.76295945 26.66674074 8.09292381 33.05094045 7.359375 39.44140625 C6.29355356 48.78414731 5.64560115 57.90837742 5.859375 67.31640625 C6.973125 66.32640625 6.973125 66.32640625 8.109375 65.31640625 C12.88050591 62.13565231 18.37006787 62.59154589 23.859375 63.31640625 C29.40427341 65.73599828 32.31856703 69.96841528 34.859375 75.31640625 C35.671875 78.81640625 35.671875 78.81640625 35.859375 81.31640625 C36.601875 80.53265625 37.344375 79.74890625 38.109375 78.94140625 C42.96141383 74.30991464 46.59315889 73.8686789 53.16796875 74 C58.2071 74.59240875 60.83217597 77.17507399 64.109375 80.81640625 C67.55920873 85.74474014 68.16052608 89.36917732 68.16577148 95.36694336 C68.174095 96.17569916 68.18241852 96.98445496 68.19099426 97.81771851 C68.21509533 100.49311142 68.22387014 103.16825999 68.23046875 105.84375 C68.23944094 107.71261159 68.24856289 109.58147248 68.25782776 111.45033264 C68.27432476 115.37356304 68.28201812 119.2967081 68.28491211 123.2199707 C68.29027087 128.21635496 68.32784338 133.21192106 68.37365627 138.20807552 C68.40360408 142.07317422 68.41063962 145.93808105 68.41163826 149.8032856 C68.41581202 151.64306921 68.4281303 153.48285492 68.44915581 155.32252312 C68.59858746 169.5391522 67.29262836 182.50695385 56.859375 193.31640625 C56.01544189 193.86321045 55.17150879 194.41001465 54.30200195 194.97338867 C51.56517914 197.1514642 51.56517914 197.1514642 51.19995117 200.61621094 C51.18424072 201.89399414 51.16853027 203.17177734 51.15234375 204.48828125 C51.12966179 205.51190765 51.12966179 205.51190765 51.10652161 206.55621338 C51.06368106 208.7266147 51.05481161 210.89562448 51.046875 213.06640625 C51.02372737 214.54170357 50.99836145 216.01696786 50.97070312 217.4921875 C50.90789126 221.10023357 50.87552436 224.70781541 50.859375 228.31640625 C42.58593816 230.82347631 34.35213968 232.32117197 25.796875 233.50390625 C24.59482422 233.68115234 23.39277344 233.85839844 22.15429688 234.04101562 C20.97287109 234.20794922 19.79144531 234.37488281 18.57421875 234.546875 C17.52355225 234.69535889 16.47288574 234.84384277 15.39038086 234.99682617 C10.89715332 235.40349387 6.3709681 235.31640625 1.859375 235.31640625 C1.859375 190.76640625 1.859375 146.21640625 1.859375 100.31640625 C-9.030625 100.31640625 -19.920625 100.31640625 -31.140625 100.31640625 C-33.30964034 93.80936023 -33.30964034 93.80936023 -32.140625 90.31640625 C-30.58276194 80.28385016 -29.61631005 70.21275343 -28.7734375 60.09765625 C-28.5899425 57.98483164 -28.40408411 55.87222227 -28.21821404 53.75960541 C-27.76685589 48.62868833 -27.32041084 43.49748099 -26.89599609 38.36425781 C-26.59695845 34.75350857 -26.28151392 31.14451327 -25.95534897 27.53611755 C-25.83533685 26.174794 -25.72128553 24.81293005 -25.61359024 23.45057678 C-24.91284277 14.62631385 -24.33596274 8.11218801 -17.515625 1.94140625 C-12.31802418 -1.61484694 -6.02809733 -1.92503108 0 0 Z " fill="#EEC396" transform="translate(267.140625,276.68359375)"/>
<path d="M0 0 C4.97684463 2.21376429 8.27038363 5.92999736 12.0625 9.75 C12.82038818 10.51135254 13.57827637 11.27270508 14.35913086 12.05712891 C20.34491453 18.15806051 25.75517754 24.51243854 30.81103516 31.39648438 C32.00775747 33.01046223 33.23876443 34.59232876 34.48046875 36.171875 C35.22941406 37.14640625 35.97835937 38.1209375 36.75 39.125 C37.40484375 39.97320312 38.0596875 40.82140625 38.734375 41.6953125 C40 44 40 44 39.80175781 45.94091797 C38.79892824 48.5163944 37.58202227 49.52095269 35.4375 51.25 C31.03062024 54.9341829 27.01974264 58.90174676 23 63 C18.48024688 67.60802955 13.89067773 72.01017797 9 76.22265625 C5.51028722 79.32386585 2.2678338 82.66834132 -1 86 C-5.52978713 90.61825953 -10.12959484 95.0319728 -15.03125 99.25390625 C-18.33738101 102.18612958 -21.40917665 105.34410669 -24.5 108.5 C-28.20782608 112.28588558 -31.92528593 115.98516991 -35.9453125 119.44140625 C-41.10158015 123.88521244 -45.78891001 128.77396811 -50.52734375 133.65429688 C-51.20667969 134.34458984 -51.88601563 135.03488281 -52.5859375 135.74609375 C-53.49931885 136.68473267 -53.49931885 136.68473267 -54.43115234 137.64233398 C-56 139 -56 139 -58 139 C-58 139.66 -58 140.32 -58 141 C-61.15222644 139.61931189 -63.12250779 138.05921424 -65.42578125 135.515625 C-66.05806641 134.82726562 -66.69035156 134.13890625 -67.34179688 133.4296875 C-67.99212891 132.71039063 -68.64246094 131.99109375 -69.3125 131.25 C-73.96450723 126.12387296 -78.64979569 121.40197922 -84 117 C-84.40089844 117.37584229 -84.80179687 117.75168457 -85.21484375 118.13891602 C-86.06755859 118.93833618 -86.06755859 118.93833618 -86.9375 119.75390625 C-87.8980127 120.65459839 -87.8980127 120.65459839 -88.87792969 121.57348633 C-90.30509703 122.91116837 -91.73284147 124.24823496 -93.16113281 125.5847168 C-96.94918106 129.1309306 -100.72710347 132.68679909 -104.484375 136.265625 C-105.19980469 136.94423584 -105.91523438 137.62284668 -106.65234375 138.32202148 C-108.02830629 139.62768054 -109.40083127 140.93697386 -110.76953125 142.25024414 C-111.39730469 142.84442139 -112.02507812 143.43859863 -112.671875 144.05078125 C-113.2194043 144.57325439 -113.76693359 145.09572754 -114.33105469 145.6340332 C-118.97567341 149.43547289 -123.2570336 149.42277311 -129.0859375 149.31640625 C-134.3361502 148.74634294 -136.89800985 146.22112422 -140.3125 142.4375 C-142.79677898 138.84909703 -143.20022626 135.95981109 -143.3125 131.6875 C-143.34988281 130.76324219 -143.38726562 129.83898437 -143.42578125 128.88671875 C-142.46744677 122.38938684 -137.25705859 117.96501679 -132.75 113.5625 C-132.16718262 112.98612793 -131.58436523 112.40975586 -130.98388672 111.81591797 C-128.10651058 108.9897094 -125.20227263 106.23458141 -122.125 103.625 C-119.3951768 101.26811286 -116.7880708 98.84311521 -114.25 96.28125 C-113.23462158 95.2610376 -113.23462158 95.2610376 -112.19873047 94.22021484 C-110.83047627 92.83778518 -109.4648544 91.45274456 -108.10205078 90.06494141 C-107.47282715 89.42733887 -106.84360352 88.78973633 -106.1953125 88.1328125 C-105.62828613 87.55418457 -105.06125977 86.97555664 -104.47705078 86.37939453 C-103 85 -103 85 -101 84 C-101.58729834 79.89634578 -102.99050093 77.06599367 -105.0625 73.5 C-108.41883687 66.91703977 -109.23783139 61.29265003 -108 54 C-104.70563517 44.42831313 -94.70427181 37.49172773 -86.0625 33.125 C-73.73078654 27.33445629 -62.06698873 25.82742106 -48.5625 25.875 C-46.9218457 25.86919922 -46.9218457 25.86919922 -45.24804688 25.86328125 C-44.17748047 25.86457031 -43.10691406 25.86585937 -42.00390625 25.8671875 C-40.96443848 25.86686523 -39.9249707 25.86654297 -38.85400391 25.86621094 C-36.30377206 25.98575987 -34.25552916 26.41755237 -31.80859375 27.0703125 C-27.25685744 26.98628045 -26.58770671 26.20539586 -23.34375 23.1875 C-21.7057616 21.48048778 -20.09177472 19.75018569 -18.5 18 C-16.88777689 16.28943905 -15.27322039 14.58107411 -13.65625 12.875 C-12.49416016 11.63556641 -12.49416016 11.63556641 -11.30859375 10.37109375 C-8.05274603 7.02710126 -4.56384656 4.00742665 -1 1 C-0.67 0.67 -0.34 0.34 0 0 Z " fill="#F2D5A3" transform="translate(429,68)"/>
<path d="M0 0 C3.82957301 1.58005359 6.24501847 4.00363841 9.14819336 6.92114258 C9.64793167 7.42058884 10.14766998 7.9200351 10.66255188 8.43461609 C12.30976898 10.08322375 13.94978838 11.73880141 15.58984375 13.39453125 C16.73756319 14.54598454 17.88572775 15.69699432 19.03431702 16.84757996 C22.05680007 19.87769293 25.07323561 22.91375717 28.08843994 25.95111084 C31.14586725 29.02892436 34.20888779 32.10115979 37.27148438 35.17382812 C42.6693167 40.59079032 48.06219676 46.01263993 53.45152283 51.43806458 C58.13472552 56.17243969 58.13472552 56.17243969 62.9140625 60.80859375 C68.06018302 65.70798246 71.10145071 69.67982095 71.375 77 C71.22480423 81.34914717 70.51913451 84.3515983 68 88 C62.58811138 92.88389948 59.12762851 93.37236837 51.9609375 93.26171875 C44.66386683 92.61672702 40.30036059 86.41646204 35.453125 81.453125 C33.4685873 79.4685873 31.47909371 77.65121646 29.3125 75.875 C26.91916866 73.88918717 24.90085354 71.80529726 22.89624023 69.4296875 C18.60620002 64.47256461 13.99531109 59.86978452 9.34765625 55.25 C7.99745644 53.90192261 7.99745644 53.90192261 6.61997986 52.52661133 C4.25288737 50.16413425 1.88365361 47.80384888 -0.48669434 45.44464111 C-2.91550742 43.02614819 -5.34141103 40.60474054 -7.76757812 38.18359375 C-12.50907369 33.45307046 -17.25341898 28.72542027 -22 24 C-20.30145963 20.37916872 -18.28895218 18.05744646 -15.4296875 15.234375 C-14.08583984 13.90019531 -14.08583984 13.90019531 -12.71484375 12.5390625 C-11.77769531 11.61867187 -10.84054688 10.69828125 -9.875 9.75 C-8.92011363 8.80515144 -7.96568141 7.85984367 -7.01171875 6.9140625 C-4.67890913 4.60481662 -2.34155914 2.30036797 0 0 Z " fill="#E8B28D" transform="translate(173,151)"/>
<path d="M0 0 C4.30546028 2.2556868 6.53582058 5.14603523 8.859375 9.31640625 C9.30273438 12.65185547 9.30273438 12.65185547 9.203125 16.24609375 C9.16703125 17.56448242 9.1309375 18.88287109 9.09375 20.24121094 C8.76295945 26.66674074 8.09292381 33.05094045 7.359375 39.44140625 C6.29355356 48.78414731 5.64560115 57.90837742 5.859375 67.31640625 C6.849375 67.31640625 7.839375 67.31640625 8.859375 67.31640625 C7.484375 68.81640625 7.484375 68.81640625 5.859375 70.31640625 C5.199375 70.31640625 4.539375 70.31640625 3.859375 70.31640625 C3.76849609 71.82267578 3.76849609 71.82267578 3.67578125 73.359375 C3.59119878 74.74088866 3.50656026 76.12239889 3.421875 77.50390625 C3.38255859 78.15810547 3.34324219 78.81230469 3.30273438 79.48632812 C2.8949945 86.10425996 2.36813956 92.70246695 1.859375 99.31640625 C-9.360625 99.31640625 -20.580625 99.31640625 -32.140625 99.31640625 C-32.470625 96.34640625 -32.800625 93.37640625 -33.140625 90.31640625 C-32.810625 90.31640625 -32.480625 90.31640625 -32.140625 90.31640625 C-30.7142315 80.25776675 -29.61724304 70.22395 -28.7734375 60.09765625 C-28.5899425 57.98483164 -28.40408411 55.87222227 -28.21821404 53.75960541 C-27.76685589 48.62868833 -27.32041084 43.49748099 -26.89599609 38.36425781 C-26.59695845 34.75350857 -26.28151392 31.14451327 -25.95534897 27.53611755 C-25.83533685 26.174794 -25.72128553 24.81293005 -25.61359024 23.45057678 C-24.91284277 14.62631385 -24.33596274 8.11218801 -17.515625 1.94140625 C-12.31802418 -1.61484694 -6.02809733 -1.92503108 0 0 Z " fill="#E7B28D" transform="translate(267.140625,276.68359375)"/>
<path d="M0 0 C7.89117374 5.78193209 14.83646325 12.56293119 21.69921875 19.50390625 C22.66954446 20.47797601 23.64032298 21.45159489 24.61152649 22.42478943 C27.12952955 24.95031957 29.64146062 27.48180096 32.15203857 30.01470947 C34.72977528 32.61314431 37.31339804 35.20571319 39.89648438 37.79882812 C44.93666173 42.86026177 49.9704276 47.92802614 55 53 C52.29160388 58.69809909 47.84512756 61.41185671 42.0625 63.75 C40.71555376 64.18944771 39.36101979 64.60629504 38 65 C37.32710938 65.22558594 36.65421875 65.45117188 35.9609375 65.68359375 C33.9375 66.1875 33.9375 66.1875 30 66 C28.38044739 64.5362854 28.38044739 64.5362854 26.78051758 62.52978516 C22.93470738 57.89107768 18.8122492 53.61616904 14.57421875 49.3359375 C13.78658646 48.54023346 12.99895416 47.74452942 12.18745422 46.92471313 C10.53082 45.2543369 8.87269084 43.58544209 7.21313477 41.91796875 C5.53024919 40.22353316 3.85184732 38.52463255 2.17797852 36.82128906 C-0.26341523 34.33702183 -2.71798047 31.86646157 -5.17578125 29.3984375 C-5.91153885 28.64517181 -6.64729645 27.89190613 -7.40534973 27.11581421 C-14.78327618 19.76797427 -23.33844192 15.15373895 -32.625 10.625 C-33.34300781 10.27050781 -34.06101563 9.91601562 -34.80078125 9.55078125 C-36.5319847 8.69672088 -38.26571171 7.84777864 -40 7 C-29.53113177 -4.33725362 -13.46281714 -7.37129743 0 0 Z " fill="#EEC397" transform="translate(165,60)"/>
<path d="M0 0 C3.06805954 1.36843721 5.16621505 2.92127001 7.52758789 5.30053711 C8.19830826 5.97140854 8.86902863 6.64227997 9.56007385 7.33348083 C10.27372604 8.0574556 10.98737823 8.78143036 11.72265625 9.52734375 C12.46454697 10.27206436 13.20643768 11.01678497 13.97080994 11.78407288 C16.33944498 14.16389241 18.70103742 16.55056524 21.0625 18.9375 C22.65643999 20.54147393 24.25083588 22.14499494 25.84570312 23.74804688 C29.35982986 27.28182614 32.86952866 30.81993599 36.37538147 34.36192322 C37.46035408 35.45588368 38.56327788 36.53232142 39.68309021 37.59059143 C41.4422955 39.47336201 41.46389536 40.63760958 41.5 43.1875 C41.31962684 48.46126765 39.33142737 51.99866604 36 56 C31.83952988 59.77344964 29.32459985 61.1678041 23.75 61.3125 C22.81671875 61.34988281 21.8834375 61.38726562 20.921875 61.42578125 C13.80028289 60.38800914 8.79713719 54.06226571 3.9765625 49.171875 C3.23038666 48.42286926 2.48421082 47.67386353 1.71542358 46.90216064 C-0.65281128 44.52278399 -3.01397363 42.13652757 -5.375 39.75 C-6.98521424 38.12974823 -8.59588649 36.50995148 -10.20703125 34.890625 C-14.14333907 30.93233646 -18.07387258 26.96838506 -22 23 C-18.7498913 19.1511826 -15.49349707 15.36650119 -11.9140625 11.81640625 C-11.21152344 11.11708984 -10.50898437 10.41777344 -9.78515625 9.69726562 C-9.07230469 8.99279297 -8.35945313 8.28832031 -7.625 7.5625 C-6.88894531 6.83095703 -6.15289062 6.09941406 -5.39453125 5.34570312 C-3.59863926 3.56147277 -1.80044015 1.77963876 0 0 Z " fill="#D3987D" transform="translate(126,198)"/>
<path d="M0 0 C8.76717192 7.24244636 16.67051 15.31139928 24 24 C22.59957012 27.17386941 20.94785382 29.28860814 18.48046875 31.71484375 C17.78759766 32.40126953 17.09472656 33.08769531 16.38085938 33.79492188 C15.65705078 34.50197266 14.93324219 35.20902344 14.1875 35.9375 C13.47529297 36.64068359 12.76308594 37.34386719 12.02929688 38.06835938 C10.64433805 39.43538164 9.25751742 40.80052079 7.86865234 42.16357422 C5.01546524 44.96755558 2.16359865 47.77350413 -0.58984375 50.67578125 C-4.70198002 54.53731641 -9.54144308 56.27261533 -15.125 56.5 C-20.5349149 56.25145873 -23.71596599 54.43299275 -27.4375 50.46875 C-30.72077008 46.6631415 -32.16628636 44.34626379 -32.3125 39.375 C-32.34988281 38.55773437 -32.38726562 37.74046875 -32.42578125 36.8984375 C-31.24404219 28.85393859 -26.37171292 23.89392787 -20.5 18.6875 C-19.79746094 18.0473999 -19.09492188 17.4072998 -18.37109375 16.74780273 C-16.94324488 15.448389 -15.51098018 14.15381008 -14.07421875 12.86425781 C-11.56134784 10.60575001 -9.07596849 8.31852554 -6.59179688 6.02856445 C-4.40155978 4.01132922 -2.20119905 2.00525898 0 0 Z " fill="#E8B28D" transform="translate(345,184)"/>
<path d="M0 0 C1.65322266 -0.01836914 1.65322266 -0.01836914 3.33984375 -0.03710938 C9.12464223 -0.04752618 14.04696609 0.20529083 19.5 2.1875 C16.76478883 3.59412484 14.01081578 4.82171313 11.15625 5.96484375 C-0.05554768 10.60526103 -8.18052041 15.31680682 -16.5 24.1875 C-18.0795379 25.77461969 -19.66264297 27.35820062 -21.25 28.9375 C-21.88421875 29.59234375 -22.5184375 30.2471875 -23.171875 30.921875 C-25.13275617 32.83011507 -27.13066833 34.6113678 -29.203125 36.39453125 C-33.85038848 40.42871926 -38.17467603 44.75095055 -42.5 49.125 C-43.27472656 49.90423828 -44.04945313 50.68347656 -44.84765625 51.48632812 C-46.73410757 53.3844242 -48.61816245 55.28483149 -50.5 57.1875 C-57.09495128 49.29610531 -60.46017166 41.59726 -59.96875 31.19140625 C-58.57998799 22.29175638 -51.44972058 16.33509888 -44.5 11.1875 C-30.2697699 2.67242018 -16.40536928 0.00959378 0 0 Z " fill="#EDC297" transform="translate(380.5,93.8125)"/>
<path d="M0 0 C10.19083196 4.26375038 18.23021994 16.52082875 25 25 C22.01695948 28.10012846 19.01075532 31.17679938 16 34.25 C14.74123047 35.55904297 14.74123047 35.55904297 13.45703125 36.89453125 C7.88471328 42.55324175 3.08405966 47.09260878 -4.9765625 48.53125 C-10.82352521 48.46225929 -14.48440379 48.08553943 -19 44 C-24.39211338 38.37280811 -25.60519212 33.69531651 -25.53125 25.99609375 C-24.75993293 21.64609231 -22.82088036 20.22465931 -19.34765625 17.70703125 C-16.78257681 15.84190694 -14.70253695 13.77914693 -12.5 11.5 C-8.50632215 7.45075794 -4.33771457 3.67582897 0 0 Z " fill="#D3987D" transform="translate(393,235)"/>
<path d="M0 0 C0.33 0 0.66 0 1 0 C1.03314301 0.5524942 1.06628601 1.1049884 1.10043335 1.67422485 C1.45355358 7.54950443 1.81146619 13.42447954 2.171875 19.29931641 C2.30488159 21.4769796 2.43676078 23.65471201 2.56738281 25.83251953 C3.25478139 37.28034971 3.99638439 48.72148121 4.9765625 60.1484375 C5.04886078 61.0410025 5.12115906 61.9335675 5.19564819 62.85317993 C5.81294847 69.71762824 7.37856705 75.61025718 10 82 C10.67795528 83.99620166 11.34733531 85.99538701 12 88 C-2.91597765 81.15116258 -13.90957584 63.99635101 -20 49.4375 C-21.98928769 43.44266355 -22.48453224 37.80220306 -22.5625 31.5 C-22.57732422 30.65107178 -22.59214844 29.80214355 -22.60742188 28.92749023 C-22.50060432 22.5241594 -20.72875064 18.98213462 -16.359375 14.20703125 C-11.53703044 10.02844628 -6.59592168 7 0 7 C0 4.69 0 2.38 0 0 Z " fill="#EDC297" transform="translate(198,381)"/>
<path d="M0 0 C5.55499849 2.72699926 9.76986736 7.18370816 12 13 C12.18077635 15.78704334 12.25271503 18.47134823 12.22705078 21.25683594 C12.22734283 22.08647354 12.22763489 22.91611115 12.22793579 23.77088928 C12.2265442 26.50882482 12.21099104 29.24648709 12.1953125 31.984375 C12.19158176 33.88437756 12.18873508 35.78438204 12.18673706 37.68438721 C12.17910539 42.68212202 12.15946085 47.67974036 12.1373291 52.6774292 C12.11686067 57.77842636 12.10773321 62.87944235 12.09765625 67.98046875 C12.07621457 77.98703031 12.04208419 87.99350546 12 98 C11.67 98 11.34 98 11 98 C11 77.54 11 57.08 11 36 C0.44 36 -10.12 36 -21 36 C-21.495 18.675 -21.495 18.675 -22 1 C-21.67 1 -21.34 1 -21 1 C-20.67 2.98 -20.34 4.96 -20 7 C-19.2575 6.21625 -18.515 5.4325 -17.75 4.625 C-12.32257711 -0.55572185 -7.30727691 -0.85905578 0 0 Z " fill="#CF967F" transform="translate(323,351)"/>
</svg>
